PathFileType	4	(X/Y/Z)	C:/Users/beibeiliu/ov580/test_trc/User2\sequence.35_training_dense_left.trc
DataRate	CameraRate	NumFrames	NumMarkers	Units	OrigDataRate	OrigDataStartFrame	OrigNumFrames
120	120	19	19	mm	120	253	289
Frame#	Time	ThumbCMC			ThumbMCP			ThumbIP			ThumbTip			IndexMCP			IndexPIP			IndexTip			MiddleMCP			MiddlePIP			MiddleTip			RingMCP			RingPIP			RingTip			PinkyMCP			PinkyPIP			PinkyTip			BackHand1			BackHand2			BackHand3	
		X0	Y0	Z0	X1	Y1	Z1	X2	Y2	Z2	X3	Y3	Z3	X4	Y4	Z4	X5	Y5	Z5	X6	Y6	Z6	X7	Y7	Z7	X8	Y8	Z8	X9	Y9	Z9	X10	Y10	Z10	X11	Y11	Z11	X12	Y12	Z12	X13	Y13	Z13	X14	Y14	Z14	X15	Y15	Z15	X16	Y16	Z16	X17	Y17	Z17	X18	Y18	Z18	
252	2.1	-224.663	-90.9717	76.0823	-226.438	-97.0551	38.9724	-210.389	-98.4325	10.3686	-183.639	-97.992	-3.26134	-172.134	-117.443	12.4643	-153.549	-90.5146	0.0660027	-170.994	-68.5056	22.8111	-146.218	-117.892	17.613	-138.054	-87.2503	5.77856	-163.123	-69.3527	35.786	-131.436	-115.804	32.7699	-123.244	-90.5783	19.2331	-142.757	-70.7138	43.6265	-119.612	-111.188	55.9559	-118.414	-84.3321	35.4186	-138.562	-67.5747	52.6133	-166.736	-123.847	87.1774	-184.08	-120.53	115.623	-203.351	-121.898	83.6932	
253	2.10833	-228.843	-89.5588	74.2181	-225.07	-94.1017	41.593	-211.737	-99.1297	7.95258	-189.232	-99.8936	-10.2237	-167.036	-116.954	12.2393	-155.457	-93.0461	-3.30124	-171.484	-68.0396	18.7417	-147.173	-117.517	16.6305	-137.783	-88.1938	4.52734	-159.825	-70.1428	34.8126	-128.58	-115.617	31.66	-121.092	-88.9951	21.1294	-145.34	-72.0738	45.6544	-120.947	-111.908	55.6999	-117.06	-84.5249	36.0408	-134.644	-65.3152	52.4384	-164.262	-126.241	85.3616	-181.485	-121.583	113.965	-204.65	-119.625	80.3074	
254	2.11667	-223.766	-92.3783	71.7228	-226.498	-95.1303	38.738	-213.945	-98.9827	8.74885	-192.373	-102.18	-12.5326	-171.512	-116.763	11.4241	-156.762	-91.4692	-3.5917	-174.295	-69.5236	22.1345	-147.905	-119.217	21.4678	-137.217	-87.2986	5.77798	-163.598	-70.3387	37.2352	-130.676	-117.006	34.2579	-124.382	-87.5271	19.4944	-145.153	-72.2063	45.2446	-120.323	-111.153	57.5825	-117.003	-87.1599	35.745	-138.048	-67.5376	52.9091	-166.228	-125.302	85.0359	-183.386	-118.389	113.432	-205.478	-119.236	82.7902	
255	2.125	-222.797	-90.9313	72.0389	-226.108	-93.3469	41.5881	-216.939	-98.5218	8.00707	-197.7	-101.873	-13.7171	-171.374	-117.577	12.4191	-154.699	-90.3137	-0.88948	-170.816	-70.1697	22.7603	-150.65	-117.502	16.5359	-136.322	-88.2179	7.56908	-160.127	-70.4964	37.4601	-133.716	-117.1	32.8334	-122.661	-87.469	21.0334	-148.04	-71.7954	43.8454	-122.119	-112.666	53.8959	-113.49	-87.0206	37.2225	-136.606	-66.8306	54.9661	-166.734	-123.994	85.1803	-184.377	-118.594	113.844	-203.749	-119.684	85.2331	
256	2.13333	-227.785	-89.7992	73.6911	-228.573	-93.4103	40.7441	-216.006	-99.7737	10.2545	-204.713	-103.159	-16.812	-174.908	-116.99	12.368	-159.301	-89.0882	-3.52383	-174.645	-70.5438	23.1891	-148.313	-118.533	21.1108	-137.199	-87.4104	6.63901	-160.531	-69.1292	35.1	-133.149	-115.548	29.9581	-124.051	-88.8411	19.5739	-147.1	-72.6369	42.7005	-123.462	-112.583	55.7817	-119.294	-88.4471	33.6085	-137.856	-68.8628	51.2777	-166.023	-123.648	85.3867	-184.908	-119.967	114.57	-203.568	-120.391	85.7504	
257	2.14167	-230.415	-88.6485	73.008	-229.985	-93.8512	39.9396	-219.446	-97.6974	11.3825	-207.084	-100.36	-14.3301	-173.88	-117.179	8.09626	-157.53	-90.7181	-0.485002	-172.812	-71.176	21.827	-153.432	-119.03	15.854	-139.708	-84.3203	8.32777	-164.706	-69.978	33.9754	-136.394	-117.714	33.9552	-125.124	-90.4365	18.8005	-149.849	-72.9167	39.3802	-125.636	-111.81	55.1142	-120.701	-86.4645	34.8657	-138.763	-66.7924	53.5015	-167.652	-123.474	83.7282	-185.894	-120.058	115.435	-202.871	-120.015	80.4649	
258	2.15	-229.018	-88.415	72.4595	-229.895	-88.5612	43.6203	-223.886	-96.6302	5.4813	-210.963	-98.8378	-15.1502	-175.557	-116.666	9.99147	-159.048	-93.1371	-3.04494	-173.704	-69.8527	19.2721	-152.107	-119.892	18.2126	-143.589	-85.4075	5.15657	-164.659	-72.2668	37.4493	-137.157	-116.838	29.6096	-130.383	-89.1035	16.2149	-151.684	-72.727	44.2397	-128.527	-113.622	50.936	-120.643	-85.2758	33.7887	-139.12	-70.0843	50.7869	-169.369	-124.496	86.6919	-189.264	-119.91	111.884	-206.494	-118.773	81.6622	
259	2.15833	-230.912	-86.8892	68.6389	-232.136	-87.356	38.6472	-221.698	-94.7432	4.53452	-211.352	-94.5508	-19.12	-177.567	-117.425	10.2997	-163.739	-93.856	-8.04743	-175.817	-68.5365	15.9125	-156.161	-120.932	16.2838	-142.359	-90.8286	3.54577	-167.876	-71.8788	34.1478	-137.689	-118.817	29.8516	-129.24	-93.9934	16.8464	-154.016	-74.8764	40.9852	-133.41	-115.319	54.4661	-120.013	-90.2582	34.5736	-143.215	-71.7085	50.1507	-172.331	-126.34	87.9408	-191.868	-118.733	112.21	-213.522	-119.34	78.1759	
260	2.16667	-230.394	-82.2981	68.7822	-232.916	-82.0138	37.2467	-223.415	-86.9348	4.56087	-209.083	-87.913	-16.5755	-179.79	-115.809	7.42214	-162.244	-95.8013	-4.78085	-175.435	-67.376	16.539	-161.791	-121.436	15.2962	-144.43	-92.8394	2.13303	-166.434	-70.8004	32.4604	-146.915	-121.541	29.7244	-132.546	-97.8229	14.3931	-150.672	-76.3244	39.0226	-133.116	-119.844	49.0054	-123.008	-96.9334	32.0221	-144.146	-72.846	50.1388	-176.529	-125.703	85.8036	-194.835	-118.93	111.721	-213.165	-115.698	80.0419	
261	2.175	-232.419	-73.9115	70.8115	-232.038	-71.696	36.1734	-219.424	-78.0487	2.18192	-203.386	-81.5146	-17.5638	-188.235	-111.334	3.35453	-166.079	-89.5213	-8.18941	-172.777	-67.397	19.9288	-166.42	-121.318	12.3821	-144.049	-93.5385	4.02653	-159.869	-72.2142	32.1358	-150.266	-124.308	30.2663	-131.057	-99.4176	17.0094	-150.665	-76.9406	38.6078	-142.015	-123.223	51.5728	-125.471	-101.583	33.1498	-142.476	-77.6795	50.1818	-183.283	-125.45	79.2182	-199.346	-119.896	108.445	-223.756	-110.257	75.3513	
262	2.18333	-233.094	-66.6445	69.7927	-228.817	-63.8839	37.0836	-219.397	-63.0282	6.08026	-194.882	-73.8204	-16.0697	-188.536	-107.592	4.28355	-167.036	-85.8018	-7.93571	-172.152	-64.0487	22.1661	-173.015	-118.33	13.0377	-147.734	-94.0928	1.29256	-160.32	-71.5641	34.238	-155.542	-124.738	26.8515	-135.503	-101.152	16.7863	-150.832	-78.1689	38.102	-146.124	-127.928	49.0176	-127.58	-102.566	33.5091	-138.717	-79.2854	48.5429	-195.665	-122.623	78.83	-209.068	-116.604	110.054	-224.979	-104.5	76.0229	
263	2.19167	-235.972	-57.5846	69.1031	-232.223	-52.835	33.9909	-216.563	-54.5503	2.93123	-191.926	-65.665	-8.30123	-193.456	-99.5851	1.44566	-166.374	-82.6734	-7.23296	-171.012	-59.2999	17.9325	-177.128	-114.585	10.9363	-147.928	-91.9206	2.34844	-162.576	-68.4023	35.1581	-163.789	-121.575	23.5321	-138.76	-104.655	15.4341	-152.029	-77.7705	38.2908	-153.879	-125.081	48.0201	-133.747	-103.37	32.0912	-141.948	-79.7194	52.624	-196.964	-120.769	76.6549	-213.47	-112.424	107.174	-229.991	-97.398	68.9747	
264	2.2	-233.95	-55.7651	71.5178	-234.175	-45.6082	39.8474	-216.187	-49.9232	3.07845	-191.736	-60.1405	-4.62421	-193.006	-97.0175	3.24202	-169.9	-80.9916	-9.97152	-169.456	-56.9892	18.0385	-175.602	-112.781	7.90012	-151.41	-89.0963	0.326385	-161.832	-65.472	30.7752	-165.296	-120.197	24.7662	-142.784	-99.5337	13.3301	-153.213	-76.552	37.9095	-154.274	-124.746	44.4635	-134.432	-104.718	31.527	-143.388	-81.3849	49.9969	-202.312	-115.601	73.436	-215.852	-110.12	102.496	-233.008	-94.3294	71.9927	
265	2.20833	-236.64	-53.8293	66.4541	-235.505	-44.8908	39.5678	-220.538	-45.9389	5.76596	-192.731	-60.0158	0.200866	-196.157	-92.6779	5.06766	-167.534	-75.2958	-6.95126	-170.776	-55.1631	18.9644	-180.673	-107.818	8.22527	-150.758	-90.0666	0.733721	-161.462	-63.987	31.8987	-165.785	-115.836	20.0217	-140.611	-97.7168	15.4946	-152.048	-74.5493	38.3038	-157.257	-122.003	45.0515	-135.381	-98.5153	32.0475	-145.294	-77.8111	53.3808	-204.529	-116.065	74.4353	-218.34	-110.373	100.276	-235.478	-90.8268	68.7085	
266	2.21667	-237.764	-52.5051	66.5816	-236.671	-46.3365	37.6068	-220.754	-47.6746	6.38302	-192.95	-61.5723	2.16136	-196.073	-90.7736	4.0558	-169.513	-74.7937	-9.647	-172.033	-50.8808	17.4728	-178.859	-107.532	8.65903	-150.982	-85.0691	0.844707	-164.512	-60.295	33.832	-167.288	-113.936	20.6747	-142.145	-95.1555	14.515	-154.802	-71.0027	43.9889	-157.573	-119.335	41.6263	-134.126	-96.9688	31.5261	-146.121	-74.2692	51.2768	-205.61	-114.938	69.7453	-217.454	-108.356	102.409	-235.601	-88.8298	69.4996	
267	2.225	-238.392	-51.0032	67.9453	-239.318	-44.9677	35.0707	-220.266	-47.9043	8.5877	-192.227	-63.0356	0.152708	-198.176	-88.6721	2.25248	-168.736	-70.3339	-7.35548	-174.517	-49.8189	23.0555	-178.397	-103.865	4.79128	-152.5	-83.1827	0.355738	-164.503	-57.3377	31.5119	-166.042	-114.316	23.2277	-142.394	-90.5574	14.7742	-153.082	-69.7695	40.7399	-159.91	-117.088	42.1247	-136.431	-96.3203	30.6631	-144.692	-72.5975	51.0587	-203.841	-116.007	72.499	-218.465	-106.92	103.679	-234.532	-88.1293	70.6137	
268	2.23333	-240.296	-50.8876	69.0156	-238.041	-47.4039	37.16	-220.173	-52.215	3.11243	-193.926	-62.7781	0.552312	-196.524	-87.0712	-2.14444	-170.499	-73.3044	-9.80794	-175.383	-48.9927	22.6806	-178.398	-104.487	6.58916	-150.557	-80.1114	3.96005	-162.342	-58.6677	31.3805	-164.013	-113.723	22.8433	-143.886	-91.3317	15.0103	-154.306	-70.5206	39.4681	-155.785	-119.785	44.1448	-136.99	-95.7196	31.2929	-148.859	-72.8541	54.0703	-205.175	-115.592	72.7973	-221.17	-105.744	103.416	-233.829	-91.5086	68.0373	
269	2.24167	-241.992	-49.2409	69.7171	-239.424	-47.0321	33.6942	-220.238	-52.6287	6.04968	-190.257	-68.2672	-0.353943	-198.04	-88.4567	2.12162	-168.839	-74.7989	-7.56322	-174.388	-49.9659	19.5044	-179.87	-106.168	10.512	-151.641	-85.1273	1.82511	-161.655	-60.7448	33.2071	-165.535	-111.82	19.4924	-142.838	-88.616	16.7453	-157.045	-70.9367	46.6716	-158.103	-118.864	46.2872	-135.747	-95.9848	33.4247	-144.871	-73.9251	53.4983	-204.976	-113.127	73.996	-223.759	-105.869	100.824	-236.999	-86.4749	70.2736	
270	2.25	-236.755	-53.5806	70.6329	-237.445	-48.82	33.5555	-219.043	-54.068	3.89394	-192.233	-66.9661	-1.80575	-196.631	-91.4245	1.2449	-167.594	-77.4819	-5.82247	-172.23	-52.6119	20.146	-178.57	-105.397	5.89111	-150.576	-85.4914	2.08491	-165.324	-61.1004	34.8425	-165.233	-113.255	21.5997	-140.131	-94.3691	17.7349	-159.572	-71.2268	45.5453	-157.809	-118.996	47.2382	-137.409	-98.0442	32.4354	-146.555	-72.0255	57.2641	-204.275	-114.859	73.7204	-220.045	-106.224	102.391	-235.891	-91.1107	70.313	
